<svg width="100%" viewBox="0 0 1080 580" xmlns="http://www.w3.org/2000/svg">
<title>Homelab architecture</title>
<desc>A k3s cluster on two Raspberry Pi nodes managed by Flux from GitHub. Workloads schedule freely across both nodes. Storage lives on a QNAP NAS via iSCSI and NFS. Services are exposed through Cloudflare Tunnel and Tailscale.</desc>

<style>
  text { font-family: -apple-system, BlinkMacSystemFont, "Segoe UI", Helvetica, Arial, sans-serif; }
  .h { font-size: 15px; font-weight: 600; }
  .lbl { font-size: 13px; font-weight: 500; }
  .s { font-size: 11.5px; }
  .region { fill: #FAFAF9; stroke: #C4BFB9; stroke-width: 1.25; }
  .region-t { fill: #44403C; }
  .card { fill: #FFFFFF; stroke-width: 1.25; }
  .card-sub { fill: #57534E; }
  .accent-bar { stroke-width: 3; stroke-linecap: round; }
  .teal { stroke: #0B5C55; } .teal-t { fill: #0B5C55; }
  .indigo { stroke: #3730A3; } .indigo-t { fill: #3730A3; }
  .amber { stroke: #92400E; } .amber-t { fill: #92400E; }
  .sky { stroke: #075985; } .sky-t { fill: #075985; }
  .rose { stroke: #9F1239; } .rose-t { fill: #9F1239; }
  .emerald { stroke: #065F46; } .emerald-t { fill: #065F46; }
  .card-border { stroke: #C4BFB9; }
  .arr { stroke: #78716C; stroke-width: 1.5; fill: none; }
  .arr-lbl { fill: #78716C; font-size: 11px; }

  @media (prefers-color-scheme: dark) {
    .region { fill: #1C1917; stroke: #292524; }
    .region-t { fill: #A8A29E; }
    .card { fill: #292524; }
    .card-sub { fill: #A8A29E; }
    .teal { stroke: #2DD4BF; } .teal-t { fill: #2DD4BF; }
    .indigo { stroke: #A5B4FC; } .indigo-t { fill: #A5B4FC; }
    .amber { stroke: #FBBF24; } .amber-t { fill: #FBBF24; }
    .sky { stroke: #7DD3FC; } .sky-t { fill: #7DD3FC; }
    .rose { stroke: #FDA4AF; } .rose-t { fill: #FDA4AF; }
    .emerald { stroke: #6EE7B7; } .emerald-t { fill: #6EE7B7; }
    .card-border { stroke: #44403C; }
    .arr { stroke: #57534E; }
    .arr-lbl { fill: #78716C; }
  }
</style>

<defs>
  <marker id="ah" viewBox="0 0 10 10" refX="8" refY="5" markerWidth="6" markerHeight="6" orient="auto-start-reverse">
    <path d="M2 1L8 5L2 9" fill="none" stroke="context-stroke" stroke-width="1.5" stroke-linecap="round" stroke-linejoin="round"/>
  </marker>
</defs>

<rect class="card card-border" x="40" y="70" width="180" height="58" rx="10"/>
<line class="accent-bar emerald" x1="40" y1="80" x2="40" y2="118"/>
<text class="lbl emerald-t" x="60" y="96">GitHub repo</text>
<text class="s card-sub" x="60" y="114">Source of truth</text>

<rect class="card card-border" x="40" y="158" width="180" height="58" rx="10"/>
<line class="accent-bar rose" x1="40" y1="168" x2="40" y2="206"/>
<text class="lbl rose-t" x="60" y="184">Renovate</text>
<text class="s card-sub" x="60" y="202">Automated image PRs</text>

<line class="arr" x1="130" y1="158" x2="130" y2="130" marker-end="url(#ah)"/>
<text class="arr-lbl" x="138" y="146">opens PRs</text>

<line class="arr" x1="220" y1="99" x2="296" y2="99" marker-end="url(#ah)"/>
<text class="arr-lbl" x="258" y="91" text-anchor="middle">Flux sync</text>

<line class="arr" x1="220" y1="187" x2="296" y2="187" marker-end="url(#ah)"/>

<rect class="region" x="300" y="50" width="500" height="360" rx="14"/>
<text class="h region-t" x="324" y="80">k3s cluster</text>
<text class="s region-t" x="324" y="98" opacity="0.8">Pods schedule freely across both nodes · failover automatic</text>

<rect class="card teal" x="324" y="118" width="216" height="54" rx="9" stroke-width="1.25"/>
<text class="lbl teal-t" x="342" y="140">zoro</text>
<text class="s card-sub" x="342" y="158">control plane · Pi 5 · 16GB</text>

<rect class="card amber" x="560" y="118" width="216" height="54" rx="9" stroke-width="1.25"/>
<text class="lbl amber-t" x="578" y="140">luffy</text>
<text class="s card-sub" x="578" y="158">worker · Pi 5 · 16GB</text>

<rect class="region" x="324" y="196" width="452" height="192" rx="10"/>
<text class="s region-t" x="342" y="218" opacity="0.8">workloads</text>

<rect class="card indigo" x="342" y="232" width="106" height="34" rx="7" stroke-width="1"/><text class="s indigo-t" x="395" y="253" text-anchor="middle">homepage</text>
<rect class="card indigo" x="460" y="232" width="96" height="34" rx="7" stroke-width="1"/><text class="s indigo-t" x="508" y="253" text-anchor="middle">linkding</text>
<rect class="card indigo" x="568" y="232" width="120" height="34" rx="7" stroke-width="1"/><text class="s indigo-t" x="628" y="253" text-anchor="middle">audiobookshelf</text>
<rect class="card indigo" x="700" y="232" width="58" height="34" rx="7" stroke-width="1"/><text class="s indigo-t" x="729" y="253" text-anchor="middle">grafana</text>

<rect class="card sky" x="342" y="278" width="102" height="34" rx="7" stroke-width="1"/><text class="s sky-t" x="393" y="299" text-anchor="middle">prometheus</text>
<rect class="card sky" x="456" y="278" width="106" height="34" rx="7" stroke-width="1"/><text class="s sky-t" x="509" y="299" text-anchor="middle">alertmanager</text>
<rect class="card sky" x="574" y="278" width="116" height="34" rx="7" stroke-width="1"/><text class="s sky-t" x="632" y="299" text-anchor="middle">democratic-csi</text>
<rect class="card sky" x="702" y="278" width="56" height="34" rx="7" stroke-width="1"/><text class="s sky-t" x="730" y="299" text-anchor="middle">traefik</text>

<rect class="card emerald" x="342" y="324" width="70" height="34" rx="7" stroke-width="1"/><text class="s emerald-t" x="377" y="345" text-anchor="middle">sops</text>
<rect class="card emerald" x="424" y="324" width="110" height="34" rx="7" stroke-width="1"/><text class="s emerald-t" x="479" y="345" text-anchor="middle">renovate-job</text>

<rect class="card card-border" x="850" y="70" width="190" height="120" rx="12"/>
<line class="accent-bar amber" x1="850" y1="82" x2="850" y2="178"/>
<text class="lbl amber-t" x="870" y="94">QNAP NAS</text>
<text class="s card-sub" x="870" y="120">iSCSI · config, metadata, metrics</text>
<text class="s card-sub" x="870" y="142">NFS · audiobooks, podcasts</text>
<text class="s card-sub" x="870" y="164">block (RWO) + network (RWX)</text>

<rect class="card card-border" x="850" y="218" width="190" height="120" rx="12"/>
<line class="accent-bar sky" x1="850" y1="230" x2="850" y2="326"/>
<text class="lbl sky-t" x="870" y="242">Networking</text>
<text class="s card-sub" x="870" y="268">Cloudflare Tunnel</text>
<text class="s card-sub" x="870" y="288">no open ports · public DNS</text>
<text class="s card-sub" x="870" y="312">Tailscale · grafana on LAN</text>

<line class="arr" x1="800" y1="130" x2="848" y2="130" marker-end="url(#ah)"/>
<text class="arr-lbl" x="824" y="122" text-anchor="middle">storage</text>

<line class="arr" x1="800" y1="278" x2="848" y2="278" marker-end="url(#ah)"/>
<text class="arr-lbl" x="824" y="270" text-anchor="middle">ingress</text>

<line class="arr" x1="945" y1="338" x2="945" y2="470" marker-end="url(#ah)"/>

<rect class="card card-border" x="820" y="478" width="250" height="64" rx="12"/>
<line class="accent-bar emerald" x1="820" y1="490" x2="820" y2="530"/>
<text class="lbl emerald-t" x="840" y="504">Internet</text>
<text class="s card-sub" x="840" y="524">homepage · links · audiobooks</text>

</svg>
